<svg id="visual" viewBox="0 0 960 540" width="960" height="540" xmlns="http://www.w3.org/2000/svg" xmlns:xlink="http://www.w3.org/1999/xlink" version="1.1"><rect x="0" y="0" width="960" height="540" fill="#001220"></rect><defs><linearGradient id="grad1_0" x1="43.8%" y1="0%" x2="100%" y2="100%"><stop offset="14.444444444444446%" stop-color="#001220" stop-opacity="1"></stop><stop offset="85.55555555555554%" stop-color="#001220" stop-opacity="1"></stop></linearGradient></defs><defs><linearGradient id="grad2_0" x1="0%" y1="0%" x2="56.3%" y2="100%"><stop offset="14.444444444444446%" stop-color="#001220" stop-opacity="1"></stop><stop offset="85.55555555555554%" stop-color="#001220" stop-opacity="1"></stop></linearGradient></defs><g transform="translate(960, 0)"><path d="M0 486C-60.1 459.7 -120.2 433.5 -165.7 400C-211.2 366.6 -242.2 326 -292.7 292.7C-343.3 259.5 -413.5 233.6 -449 186C-484.5 138.4 -485.2 69.2 -486 0L0 0Z" fill="#00aaff"></path></g><g transform="translate(0, 540)"><path d="M0 -486C41.1 -429.2 82.2 -372.3 148.5 -358.5C214.7 -344.6 306.1 -373.7 343.7 -343.7C381.2 -313.6 365 -224.4 379.7 -157.3C394.5 -90.1 440.2 -45.1 486 0L0 0Z" fill="#00aaff"></path></g></svg>