<svg id="visual" viewBox="0 0 900 600" width="900" height="600" xmlns="http://www.w3.org/2000/svg" xmlns:xlink="http://www.w3.org/1999/xlink" version="1.1"><rect x="0" y="0" width="900" height="600" fill="#002233"></rect><path d="M0 419L21.5 412C43 405 86 391 128.8 383.8C171.7 376.7 214.3 376.3 257.2 397.5C300 418.7 343 461.3 385.8 462.5C428.7 463.7 471.3 423.3 514.2 410.3C557 397.3 600 411.7 642.8 431.5C685.7 451.3 728.3 476.7 771.2 489.2C814 501.7 857 501.3 878.5 501.2L900 501L900 601L878.5 601C857 601 814 601 771.2 601C728.3 601 685.7 601 642.8 601C600 601 557 601 514.2 601C471.3 601 428.7 601 385.8 601C343 601 300 601 257.2 601C214.3 601 171.7 601 128.8 601C86 601 43 601 21.5 601L0 601Z" fill="#0066FF" stroke-linecap="round" stroke-linejoin="miter"></path></svg>